<?xml version="1.0" encoding="UTF-8"?>
<svg version="1.1" xmlns="http://www.w3.org/2000/svg" width="1024" height="1024">
<path d="M0 0 C34 0 34 0 40.765625 5.75390625 C42.11162107 8.39069655 43.19543271 10.82816781 44.25 13.5625 C44.90946553 14.95104826 45.58335502 16.33282859 46.27075195 17.70776367 C47.63746253 20.47312099 48.93522901 23.25571922 50.18408203 26.07617188 C52.68606516 31.62688581 55.91908132 36.68756473 59.1875 41.8125 C60.30536142 43.63130749 61.41863349 45.45294347 62.52734375 47.27734375 C63.08405762 48.19112793 63.64077148 49.10491211 64.21435547 50.04638672 C66.20248884 53.33493437 68.16788456 56.63666016 70.12890625 59.94140625 C70.82327626 61.10899623 71.51769319 62.27655831 72.2121582 63.4440918 C73.54712776 65.69164507 74.87785795 67.94172305 76.20385742 70.19458008 C77.10068237 71.70314575 77.10068237 71.70314575 78.015625 73.2421875 C78.80888184 74.58579346 78.80888184 74.58579346 79.61816406 75.95654297 C80.84103147 78.12485254 80.84103147 78.12485254 83 79 C83.37511719 77.98099609 83.37511719 77.98099609 83.7578125 76.94140625 C85.22695834 73.46257978 87.01134645 70.21476201 88.875 66.9375 C89.26937256 66.24052002 89.66374512 65.54354004 90.07006836 64.82543945 C93.63497265 58.56530476 97.32976629 52.38568236 101.05297852 46.21875 C104.08508857 41.19614887 107.09514401 36.16131111 110.078125 31.109375 C110.42870468 30.51594803 110.77928436 29.92252106 111.14048767 29.31111145 C112.86423997 26.39257217 114.5859171 23.47284839 116.30493164 20.55151367 C116.94293701 19.4710376 117.58094238 18.39056152 118.23828125 17.27734375 C118.79555908 16.33109131 119.35283691 15.38483887 119.92700195 14.40991211 C122.87558278 9.55973799 125.95263125 4.78872233 129 0 C140.22 0 151.44 0 163 0 C163 46.2 163 92.4 163 140 C150.79 140 138.58 140 126 140 C125.67 116.9 125.34 93.8 125 70 C112.5454477 90.26434056 112.5454477 90.26434056 101.42651367 110.78125 C93.06672738 126.87771885 93.06672738 126.87771885 86.12890625 129.484375 C80.90404161 130.46336049 76.55686084 129.75045162 72 127 C67.14773768 122.57297716 64.39427798 116.69557337 61.49951172 110.89697266 C58.86412063 105.80554467 55.77385576 100.99195248 52.75 96.125 C51.63827377 94.29569768 50.52885904 92.46498839 49.421875 90.6328125 C45.63954239 84.40664398 41.81804937 78.20433022 38 72 C37.67 94.44 37.34 116.88 37 140 C24.79 140 12.58 140 0 140 C0 93.8 0 47.6 0 0 Z " fill="#3B82F6" transform="translate(489,440)"/>
<path d="M0 0 C13.53 0 27.06 0 41 0 C41.03738281 6.00832031 41.07476562 12.01664062 41.11328125 18.20703125 C41.14358423 22.03062675 41.17474734 25.85417701 41.20898438 29.67773438 C41.26315526 35.73654809 41.31427095 41.79527233 41.34643555 47.85424805 C41.3725897 52.74328935 41.41307652 57.63202738 41.46318626 62.52087975 C41.47977348 64.37898654 41.49133816 66.2371457 41.49761391 68.09531593 C41.27422465 86.14847762 41.27422465 86.14847762 49 102 C54.97390866 107.51437722 61.0283516 108.89323685 69 109 C76.07832745 108.28536117 81.17038124 105.91046501 86.1875 100.75 C91.47652618 92.72527063 92.13296632 84.0268279 92.20532227 74.58618164 C92.21522186 73.7756131 92.22512146 72.96504456 92.23532104 72.12991333 C92.26669417 69.47335648 92.29159693 66.8167818 92.31640625 64.16015625 C92.33699671 62.3092759 92.35799371 60.45840002 92.37937927 58.60752869 C92.43438395 53.7529566 92.48388787 48.8983436 92.53222656 44.04370117 C92.5914678 38.20987253 92.65757609 32.37611811 92.72252655 26.54235077 C92.82026397 17.69494612 92.90930597 8.84749228 93 0 C106.2 0 119.4 0 133 0 C133.12032643 20.82092858 133.12032643 20.82092858 133.14648438 29.7890625 C133.16432374 35.87605773 133.18528232 41.96291586 133.22631836 48.04980469 C133.25924036 52.96465545 133.27692125 57.87935889 133.28463173 62.79431152 C133.29011695 64.65672113 133.30082552 66.51912394 133.31719017 68.38146973 C133.4967434 89.68899638 130.96673308 110.31340306 115.8125 126.625 C100.18897195 141.42442987 80.81876318 143.64945832 60.2578125 143.30859375 C43.45925334 142.6972297 28.53481548 137.22545669 16.21875 125.44921875 C0.26259495 107.83564619 -0.16450223 86.25665967 -0.09765625 63.8671875 C-0.09578819 62.02059976 -0.09436612 60.17401151 -0.09336853 58.3274231 C-0.08957388 53.49750367 -0.07977009 48.66761493 -0.06866455 43.83770752 C-0.05657284 38.02638381 -0.05203364 32.21504977 -0.04621124 26.40371704 C-0.03655636 17.60245677 -0.01737854 8.80126366 0 0 Z " fill="#3B82F6" transform="translate(330,440)"/>
<path d="M0 0 C13.53 0 27.06 0 41 0 C49.0298394 17.68273144 56.9613896 35.3993503 64.74771118 53.1902771 C69.23090886 63.43308905 73.73134525 73.66769013 78.27734375 83.8828125 C78.71925049 84.87580353 79.16115723 85.86879456 79.61645508 86.89187622 C81.74584176 91.67465546 83.87773303 96.45630559 86.01220703 101.23681641 C90.08662356 110.37121723 94.12270823 119.52156344 98.08984375 128.703125 C98.48273087 129.60601257 98.87561798 130.50890015 99.28041077 131.43914795 C99.63767746 132.2703717 99.99494415 133.10159546 100.36303711 133.95800781 C100.83851234 135.05909882 100.83851234 135.05909882 101.32359314 136.18243408 C102 138 102 138 102 140 C88.14 140 74.28 140 60 140 C58.35 136.101875 56.7 132.20375 55 128.1875 C54.47792969 126.96184326 53.95585938 125.73618652 53.41796875 124.47338867 C53.01191406 123.5063501 52.60585938 122.53931152 52.1875 121.54296875 C51.76855469 120.55321045 51.34960938 119.56345215 50.91796875 118.54370117 C50 116 50 116 50 113 C30.53 113.33 11.06 113.66 -9 114 C-12.3 122.25 -15.6 130.5 -19 139 C-20 140 -20 140 -23.87719727 140.11352539 C-25.60694167 140.11336621 -27.33669081 140.10766849 -29.06640625 140.09765625 C-29.97502914 140.0962413 -30.88365204 140.09482635 -31.81980896 140.09336853 C-34.73407221 140.08775193 -37.64825981 140.07519665 -40.5625 140.0625 C-42.53320202 140.05748714 -44.50390524 140.05292386 -46.47460938 140.04882812 C-51.31643559 140.03777711 -56.15820495 140.02050138 -61 140 C-59.03088054 133.71255618 -56.6758239 127.72035438 -53.96484375 121.71875 C-53.57420242 120.84435776 -53.1835611 119.96996552 -52.78108215 119.06907654 C-51.94119957 117.19016545 -51.09944518 115.31209013 -50.25598145 113.43478394 C-47.98898036 108.38870734 -45.73585482 103.33643209 -43.48046875 98.28515625 C-43.01992096 97.25475723 -42.55937317 96.22435822 -42.08486938 95.16273499 C-37.593549 85.10789454 -33.16618352 75.02551188 -28.75 64.9375 C-21.1070207 47.48952849 -13.39066089 30.07491483 -5.63720703 12.67578125 C-3.75573603 8.45158987 -1.87808746 4.2256968 0 0 Z M20 41 C16.20376988 49.08572564 12.79397501 57.29507632 9.49584961 65.59228516 C8.67440605 67.65792667 7.84820933 69.72162354 7.02148438 71.78515625 C4.32882608 77.27535411 4.32882608 77.27535411 3 83 C14.22 83 25.44 83 37 83 C35.19214256 76.97380855 33.52731649 71.51099083 31.15234375 65.78515625 C30.8949794 65.16273544 30.63761505 64.54031464 30.37245178 63.89903259 C29.83617075 62.60513771 29.29754708 61.31221131 28.7565918 60.02026367 C27.92977807 58.04404331 27.11186687 56.06430196 26.29492188 54.08398438 C23.57182835 47.3252929 23.57182835 47.3252929 20 41 Z " fill="#3B82F6" transform="translate(724,440)"/>
<path d="M0 0 C13.2 0 26.4 0 40 0 C40 35.64 40 71.28 40 108 C62.11 108 84.22 108 107 108 C107 118.56 107 129.12 107 140 C71.69 140 36.38 140 0 140 C0 93.8 0 47.6 0 0 Z " fill="#3B82F6" transform="translate(211,440)"/>
</svg>
