<svg xmlns="http://www.w3.org/2000/svg" viewBox="0 0 15360 10240" fill="#2563EB">
<g transform="translate(0,10240) scale(1,-1)">
<path d="M5200 8109 c-80 -8 -228 -57 -307 -101 -318 -176 -680 -553 -1020
-1058 -44 -66 -253 -412 -327 -542 -31 -56 -57 -71 -150 -88 -101 -19 -288 -7
-581 35 -195 28 -273 36 -355 33 -102 -3 -107 -5 -183 -46 -42 -24 -88 -58
-101 -75 -44 -59 -126 -211 -126 -234 0 -29 14 -29 65 -2 151 82 333 100 545
54 271 -58 336 -66 503 -63 86 2 157 -1 157 -6 0 -7 -282 -406 -457 -644 l-68
-94 -265 -2 c-235 -2 -282 -6 -411 -29 -595 -106 -1034 -462 -1006 -816 11
-147 86 -257 226 -330 129 -67 207 -83 401 -84 245 -1 415 41 636 154 199 103
335 203 550 405 l119 111 285 -138 c718 -349 984 -440 1325 -455 276 -13 499
46 708 188 84 57 222 183 282 257 49 61 51 62 90 57 185 -25 248 -17 349 48
63 40 191 168 304 304 47 56 87 100 90 98 2 -3 -6 -80 -18 -171 -25 -192 -19
-279 26 -372 69 -142 238 -233 409 -220 209 16 348 146 629 590 171 269 312
480 335 501 21 19 21 19 21 -2 0 -12 -13 -68 -29 -124 -61 -211 -74 -340 -46
-436 45 -151 230 -190 363 -77 37 31 127 165 222 330 227 395 444 709 624 901
90 97 158 144 209 144 32 0 37 -4 47 -36 18 -55 6 -115 -51 -243 -169 -379
-252 -695 -219 -832 18 -74 84 -141 163 -164 52 -15 62 -15 110 -1 66 19 123
76 187 186 282 485 455 731 679 963 122 127 215 188 286 189 50 1 63 -6 76
-39 7 -20 1 -44 -35 -126 -62 -143 -89 -215 -161 -434 -133 -400 -162 -637
-105 -842 39 -139 94 -212 198 -263 62 -31 73 -33 172 -33 121 0 177 15 267
74 127 83 288 281 453 559 24 40 47 75 52 78 4 3 8 -14 8 -38 0 -63 26 -160
59 -227 42 -81 111 -147 201 -190 74 -36 76 -36 205 -35 107 0 140 4 188 22
130 48 275 172 430 367 44 55 82 101 86 102 3 2 6 -61 6 -140 1 -193 29 -288
117 -383 141 -153 377 -165 589 -29 177 114 338 310 624 763 42 68 115 176
161 240 46 64 84 121 84 126 0 20 -78 -6 -140 -47 -106 -71 -180 -137 -281
-252 -283 -324 -368 -417 -442 -483 -128 -114 -220 -149 -263 -101 -43 48 -11
242 91 545 67 199 108 298 219 523 53 107 66 143 66 180 -1 95 -70 164 -181
177 -152 18 -263 -77 -439 -373 -306 -519 -606 -881 -752 -908 -32 -6 -40 -3
-63 20 -30 33 -32 64 -9 173 54 262 252 593 492 824 133 127 245 201 379 248
111 39 153 66 153 97 0 39 -40 84 -98 111 -52 24 -68 27 -172 27 -104 -1 -124
-4 -210 -34 -263 -93 -543 -279 -801 -532 -173 -171 -313 -349 -515 -655 -244
-373 -311 -454 -371 -454 -31 0 -53 32 -53 78 0 72 17 136 175 672 92 311 125
474 125 615 0 202 -66 319 -210 370 -69 25 -222 31 -300 11 -160 -40 -343
-161 -548 -363 -68 -67 -127 -123 -131 -123 -3 0 -6 44 -7 98 0 85 -4 104 -28
154 -45 95 -133 151 -266 170 -103 15 -200 -4 -325 -66 -97 -48 -269 -179
-393 -300 -67 -64 -211 -226 -270 -302 l-22 -29 7 45 c5 25 8 75 8 111 -1 156
-116 249 -279 225 -68 -10 -153 -73 -244 -179 -142 -165 -470 -617 -717 -986
-213 -319 -292 -396 -339 -329 -21 29 -15 80 30 261 91 367 254 857 368 1106
62 134 71 174 56 233 -32 118 -193 175 -319 112 -66 -33 -104 -83 -213 -279
-154 -275 -266 -453 -431 -685 -168 -236 -328 -416 -392 -440 -90 -34 -117 26
-74 166 53 172 199 519 344 819 98 203 115 261 96 324 -15 53 -72 96 -148 111
-66 14 -114 7 -168 -25 -59 -35 -95 -77 -184 -217 -184 -291 -256 -421 -353
-638 -128 -286 -159 -496 -92 -627 13 -27 24 -51 24 -54 0 -12 -193 -116 -265
-142 -259 -97 -520 -84 -891 44 -148 51 -364 133 -509 194 -60 26 -175 71
-255 102 -80 30 -147 57 -149 59 -2 2 2 12 11 21 41 49 229 372 439 755 89
163 131 230 149 238 14 7 70 28 125 47 121 42 375 167 534 263 589 358 975
796 1056 1197 20 99 10 191 -31 278 -69 146 -271 227 -504 204z m217 -279 c87
-52 58 -194 -79 -399 -158 -233 -411 -469 -738 -688 -169 -113 -353 -213 -367
-199 -3 2 5 23 18 45 221 378 451 737 563 876 84 104 220 240 293 292 124 88
240 116 310 73z m-3027 -2915 l75 -18 -75 -69 c-134 -123 -356 -260 -528 -324
-83 -32 -234 -57 -289 -49 -139 21 -137 151 3 291 78 78 211 146 341 175 112
24 357 21 473 -6z"/>
</g>
</svg>
